<?xml version="1.0" encoding="UTF-8"?>
<svg width="1366px" height="312px" viewBox="0 0 1366 312" version="1.1" xmlns="http://www.w3.org/2000/svg" xmlns:xlink="http://www.w3.org/1999/xlink">
    <g id="Page-1" stroke="none" stroke-width="1" fill="none" fill-rule="evenodd" opacity="0.15">
        <g id="Group-1" transform="translate(0.500000, 0.000000)">
            <rect fill="#000000" x="507" y="273" width="39" height="39"></rect>
            <rect fill="#000000" x="1053" y="273" width="39" height="39"></rect>
            <rect fill="#000000" x="468" y="273" width="39" height="39"></rect>
            <rect fill="#000000" x="1014" y="273" width="39" height="39"></rect>
            <rect fill="#000000" x="429" y="273" width="39" height="39"></rect>
            <rect fill="#000000" x="975" y="273" width="39" height="39"></rect>
            <rect fill="#000000" x="390" y="273" width="39" height="39"></rect>
            <rect fill="#000000" x="936" y="273" width="39" height="39"></rect>
            <rect fill="#000000" x="1326" y="273" width="39" height="39"></rect>
            <rect fill="#000000" x="351" y="273" width="39" height="39"></rect>
            <rect fill="#000000" x="897" y="273" width="39" height="39"></rect>
            <rect fill="#000000" x="1287" y="273" width="39" height="39"></rect>
            <rect fill="#000000" x="312" y="273" width="39" height="39"></rect>
            <rect fill="#000000" x="858" y="273" width="39" height="39"></rect>
            <rect fill="#000000" x="1248" y="273" width="39" height="39"></rect>
            <rect fill="#000000" x="273" y="273" width="39" height="39"></rect>
            <rect fill="#000000" x="819" y="273" width="39" height="39"></rect>
            <rect fill="#000000" x="1209" y="273" width="39" height="39"></rect>
            <rect fill="#000000" x="234" y="273" width="39" height="39"></rect>
            <rect fill="#000000" x="780" y="273" width="39" height="39"></rect>
            <rect fill="#000000" x="1170" y="273" width="39" height="39"></rect>
            <rect fill="#000000" x="195" y="273" width="39" height="39"></rect>
            <rect fill="#000000" x="741" y="273" width="39" height="39"></rect>
            <rect fill="#000000" x="1131" y="273" width="39" height="39"></rect>
            <rect fill="#000000" x="156" y="273" width="39" height="39"></rect>
            <rect fill="#000000" x="702" y="273" width="39" height="39"></rect>
            <rect fill="#000000" x="1092" y="273" width="39" height="39"></rect>
            <rect fill="#000000" x="117" y="273" width="39" height="39"></rect>
            <rect fill="#000000" x="663" y="273" width="39" height="39"></rect>
            <rect fill="#000000" x="78" y="273" width="39" height="39"></rect>
            <rect fill="#000000" x="624" y="273" width="39" height="39"></rect>
            <rect fill="#000000" x="39" y="273" width="39" height="39"></rect>
            <rect fill="#000000" x="585" y="273" width="39" height="39"></rect>
            <rect fill="#000000" x="0" y="273" width="39" height="39"></rect>
            <rect fill="#000000" x="546" y="273" width="39" height="39"></rect>
            <rect fill="#000000" x="507" y="234" width="39" height="39"></rect>
            <rect fill="#000000" x="1053" y="234" width="39" height="39"></rect>
            <rect fill="#000000" x="468" y="234" width="39" height="39"></rect>
            <rect fill="#373737" x="429" y="234" width="39" height="39"></rect>
            <rect fill="#373737" x="975" y="234" width="39" height="39"></rect>
            <rect fill="#000000" x="390" y="234" width="39" height="39"></rect>
            <rect fill="#000000" x="936" y="234" width="39" height="39"></rect>
            <rect fill="#000000" x="1326" y="234" width="39" height="39"></rect>
            <rect fill="#000000" x="351" y="234" width="39" height="39"></rect>
            <rect fill="#000000" x="897" y="234" width="39" height="39"></rect>
            <rect fill="#000000" x="1287" y="234" width="39" height="39"></rect>
            <rect fill="#000000" x="312" y="234" width="39" height="39"></rect>
            <rect fill="#000000" x="858" y="234" width="39" height="39"></rect>
            <rect fill="#000000" x="1248" y="234" width="39" height="39"></rect>
            <rect fill="#373737" x="273" y="234" width="39" height="39"></rect>
            <rect fill="#373737" x="819" y="234" width="39" height="39"></rect>
            <rect fill="#373737" x="1209" y="234" width="39" height="39"></rect>
            <rect fill="#000000" x="234" y="234" width="39" height="39"></rect>
            <rect fill="#000000" x="780" y="234" width="39" height="39"></rect>
            <rect fill="#000000" x="1170" y="234" width="39" height="39"></rect>
            <rect fill="#000000" x="195" y="234" width="39" height="39"></rect>
            <rect fill="#000000" x="741" y="234" width="39" height="39"></rect>
            <rect fill="#000000" x="1131" y="234" width="39" height="39"></rect>
            <rect fill="#373737" x="156" y="234" width="39" height="39"></rect>
            <rect fill="#373737" x="702" y="234" width="39" height="39"></rect>
            <rect fill="#373737" x="1092" y="234" width="39" height="39"></rect>
            <rect fill="#000000" x="117" y="234" width="39" height="39"></rect>
            <rect fill="#000000" x="663" y="234" width="39" height="39"></rect>
            <rect fill="#000000" x="78" y="234" width="39" height="39"></rect>
            <rect fill="#000000" x="624" y="234" width="39" height="39"></rect>
            <rect fill="#373737" x="39" y="234" width="39" height="39"></rect>
            <rect fill="#373737" x="585" y="234" width="39" height="39"></rect>
            <rect fill="#000000" x="0" y="234" width="39" height="39"></rect>
            <rect fill="#000000" x="546" y="234" width="39" height="39"></rect>
            <rect fill="#000000" x="507" y="195" width="39" height="39"></rect>
            <rect fill="#000000" x="1053" y="195" width="39" height="39"></rect>
            <rect fill="#373737" x="468" y="195" width="39" height="39"></rect>
            <rect fill="#373737" x="1014" y="195" width="39" height="39"></rect>
            <rect fill="#000000" x="429" y="195" width="39" height="39"></rect>
            <rect fill="#000000" x="975" y="195" width="39" height="39"></rect>
            <rect fill="#373737" x="390" y="195" width="39" height="39"></rect>
            <rect fill="#373737" x="936" y="195" width="39" height="39"></rect>
            <rect fill="#373737" x="1326" y="195" width="39" height="39"></rect>
            <rect fill="#000000" x="351" y="195" width="39" height="39"></rect>
            <rect fill="#000000" x="897" y="195" width="39" height="39"></rect>
            <rect fill="#000000" x="1287" y="195" width="39" height="39"></rect>
            <rect fill="#373737" x="312" y="195" width="39" height="39"></rect>
            <rect fill="#373737" x="858" y="195" width="39" height="39"></rect>
            <rect fill="#373737" x="1248" y="195" width="39" height="39"></rect>
            <rect fill="#000000" x="273" y="195" width="39" height="39"></rect>
            <rect fill="#000000" x="819" y="195" width="39" height="39"></rect>
            <rect fill="#000000" x="1209" y="195" width="39" height="39"></rect>
            <rect fill="#373737" x="195" y="195" width="39" height="39"></rect>
            <rect fill="#373737" x="741" y="195" width="39" height="39"></rect>
            <rect fill="#373737" x="1131" y="195" width="39" height="39"></rect>
            <rect fill="#000000" x="156" y="195" width="39" height="39"></rect>
            <rect fill="#000000" x="702" y="195" width="39" height="39"></rect>
            <rect fill="#000000" x="1092" y="195" width="39" height="39"></rect>
            <rect fill="#373737" x="117" y="195" width="39" height="39"></rect>
            <rect fill="#373737" x="663" y="195" width="39" height="39"></rect>
            <rect fill="#000000" x="39" y="195" width="39" height="39"></rect>
            <rect fill="#000000" x="585" y="195" width="39" height="39"></rect>
            <rect fill="#373737" x="0" y="195" width="39" height="39"></rect>
            <rect fill="#373737" x="546" y="195" width="39" height="39"></rect>
            <rect fill="#373737" x="507" y="156" width="39" height="39"></rect>
            <rect fill="#373737" x="1053" y="156" width="39" height="39"></rect>
            <rect fill="#000000" x="468" y="156" width="39" height="39"></rect>
            <rect fill="#000000" x="1014" y="156" width="39" height="39"></rect>
            <rect fill="#373737" x="429" y="156" width="39" height="39"></rect>
            <rect fill="#373737" x="975" y="156" width="39" height="39"></rect>
            <rect fill="#373737" x="351" y="156" width="39" height="39"></rect>
            <rect fill="#373737" x="897" y="156" width="39" height="39"></rect>
            <rect fill="#373737" x="1287" y="156" width="39" height="39"></rect>
            <rect fill="#000000" x="312" y="156" width="39" height="39"></rect>
            <rect fill="#000000" x="858" y="156" width="39" height="39"></rect>
            <rect fill="#000000" x="1248" y="156" width="39" height="39"></rect>
            <rect fill="#373737" x="273" y="156" width="39" height="39"></rect>
            <rect fill="#373737" x="819" y="156" width="39" height="39"></rect>
            <rect fill="#373737" x="1209" y="156" width="39" height="39"></rect>
            <rect fill="#000000" x="234" y="156" width="39" height="39"></rect>
            <rect fill="#000000" x="780" y="156" width="39" height="39"></rect>
            <rect fill="#000000" x="1170" y="156" width="39" height="39"></rect>
            <rect fill="#000000" x="1248" y="39" width="39" height="39"></rect>
            <rect fill-opacity="0.54" fill="#000000" x="195" y="156" width="39" height="39"></rect>
            <rect fill-opacity="0.54" fill="#000000" x="741" y="156" width="39" height="39"></rect>
            <rect fill-opacity="0.54" fill="#000000" x="1131" y="156" width="39" height="39"></rect>
            <rect fill="#373737" x="156" y="156" width="39" height="39"></rect>
            <rect fill="#373737" x="702" y="156" width="39" height="39"></rect>
            <rect fill="#373737" x="1092" y="156" width="39" height="39"></rect>
            <rect fill="#000000" x="117" y="156" width="39" height="39"></rect>
            <rect fill="#000000" x="663" y="156" width="39" height="39"></rect>
            <rect fill-opacity="0.54" fill="#000000" x="78" y="156" width="39" height="39"></rect>
            <rect fill-opacity="0.54" fill="#000000" x="624" y="156" width="39" height="39"></rect>
            <rect fill="#373737" x="39" y="156" width="39" height="39"></rect>
            <rect fill="#373737" x="585" y="156" width="39" height="39"></rect>
            <rect fill="#000000" x="507" y="117" width="39" height="39"></rect>
            <rect fill="#000000" x="1053" y="117" width="39" height="39"></rect>
            <rect fill-opacity="0.54" fill="#000000" x="390" y="117" width="39" height="39"></rect>
            <rect fill-opacity="0.54" fill="#000000" x="936" y="117" width="39" height="39"></rect>
            <rect fill-opacity="0.54" fill="#000000" x="1326" y="117" width="39" height="39"></rect>
            <rect fill-opacity="0.54" fill="#000000" x="312" y="117" width="39" height="39"></rect>
            <rect fill-opacity="0.54" fill="#000000" x="858" y="117" width="39" height="39"></rect>
            <rect fill-opacity="0.54" fill="#000000" x="1248" y="117" width="39" height="39"></rect>
            <rect fill="#373737" x="273" y="117" width="39" height="39"></rect>
            <rect fill="#373737" x="819" y="117" width="39" height="39"></rect>
            <rect fill="#373737" x="1209" y="117" width="39" height="39"></rect>
            <rect fill-opacity="0.54" fill="#000000" x="195" y="117" width="39" height="39"></rect>
            <rect fill-opacity="0.54" fill="#000000" x="741" y="117" width="39" height="39"></rect>
            <rect fill-opacity="0.54" fill="#000000" x="1131" y="117" width="39" height="39"></rect>
            <rect fill-opacity="0.54" fill="#000000" x="117" y="117" width="39" height="39"></rect>
            <rect fill-opacity="0.54" fill="#000000" x="663" y="117" width="39" height="39"></rect>
            <rect fill-opacity="0.54" fill="#000000" x="0" y="117" width="39" height="39"></rect>
            <rect fill-opacity="0.54" fill="#000000" x="546" y="117" width="39" height="39"></rect>
            <rect fill="#000000" x="468" y="78" width="39" height="39"></rect>
            <rect fill-opacity="0.54" fill="#000000" x="429" y="78" width="39" height="39"></rect>
            <rect fill-opacity="0.54" fill="#000000" x="975" y="78" width="39" height="39"></rect>
            <rect fill-opacity="0.54" fill="#000000" x="975" y="0" width="39" height="39"></rect>
            <rect fill-opacity="0.54" fill="#000000" x="351" y="78" width="39" height="39"></rect>
            <rect fill-opacity="0.54" fill="#000000" x="897" y="78" width="39" height="39"></rect>
            <rect fill-opacity="0.54" fill="#000000" x="1287" y="78" width="39" height="39"></rect>
            <rect fill-opacity="0.54" fill="#000000" x="78" y="78" width="39" height="39"></rect>
            <rect fill-opacity="0.54" fill="#000000" x="115.702918" y="39" width="39" height="39"></rect>
            <rect fill-opacity="0.54" fill="#000000" x="624" y="78" width="39" height="39"></rect>
        </g>
    </g>
</svg>